<svg width="48" height="27" viewBox="0 0 48 27" fill="none" xmlns="http://www.w3.org/2000/svg">
<path d="M2.932 26.288C2.236 26.288 1.696 26.096 1.312 25.712C0.952 25.328 0.772 24.776 0.772 24.056V2.636C0.772 1.892 0.952 1.328 1.312 0.943999C1.696 0.535998 2.188 0.331998 2.788 0.331998C3.34 0.331998 3.748 0.439998 4.012 0.655998C4.3 0.847998 4.636 1.184 5.02 1.664L18.808 19.556H17.872V2.528C17.872 1.832 18.052 1.292 18.412 0.907999C18.796 0.523998 19.336 0.331998 20.032 0.331998C20.728 0.331998 21.256 0.523998 21.616 0.907999C21.976 1.292 22.156 1.832 22.156 2.528V24.128C22.156 24.8 21.988 25.328 21.652 25.712C21.316 26.096 20.86 26.288 20.284 26.288C19.732 26.288 19.288 26.18 18.952 25.964C18.64 25.748 18.292 25.4 17.908 24.92L4.156 7.028H5.056V24.056C5.056 24.776 4.876 25.328 4.516 25.712C4.156 26.096 3.628 26.288 2.932 26.288Z" fill="#FD377E"/>
<path d="M30.0057 26.288C29.2617 26.288 28.6857 26.084 28.2777 25.676C27.8937 25.244 27.7017 24.656 27.7017 23.912V2.672C27.7017 1.904 27.8937 1.328 28.2777 0.943999C28.6857 0.535998 29.2617 0.331998 30.0057 0.331998C30.7497 0.331998 31.3137 0.535998 31.6977 0.943999C32.1057 1.328 32.3097 1.904 32.3097 2.672V11.852H32.3817L42.7137 1.484C43.0977 1.1 43.4817 0.811999 43.8657 0.619998C44.2497 0.427998 44.6817 0.331998 45.1617 0.331998C45.8577 0.331998 46.3497 0.511998 46.6377 0.872C46.9497 1.232 47.0697 1.652 46.9977 2.132C46.9497 2.612 46.7217 3.056 46.3137 3.464L35.8017 13.868L35.8377 11.78L46.8177 22.94C47.3217 23.42 47.5857 23.924 47.6097 24.452C47.6337 24.98 47.4657 25.424 47.1057 25.784C46.7697 26.12 46.2657 26.288 45.5937 26.288C45.0177 26.288 44.5497 26.168 44.1897 25.928C43.8537 25.688 43.4577 25.34 43.0017 24.884L32.3817 14.264H32.3097V23.912C32.3097 24.656 32.1177 25.244 31.7337 25.676C31.3497 26.084 30.7737 26.288 30.0057 26.288Z" fill="#212529"/>
</svg>
